<?xml version="1.0" encoding="utf-8"?>
<svg version="1.1" id="Capa_1" x="0px" y="0px" viewBox="0 0 511.997 511.997" style="enable-background:new 0 0 511.997 511.997;" xmlns="http://www.w3.org/2000/svg" xmlns:bx="https://boxy-svg.com">
  <defs>
    <bx:grid x="0" y="0" width="102.419" height="102.419"/>
  </defs>
  <ellipse transform="matrix(0.511495, 0.859285, -0.859289, 0.511493, 417.0803, 40.222422)" style="fill: rgb(150, 200, 239);" cx="220.956" cy="208.498" rx="9.076" ry="23.911"/>
  <path style="fill: rgb(120, 185, 235);" d="M 357.805 343.131 C 357.083 343.601 356.343 344.064 355.582 344.516 C 344.234 351.271 332.957 353.257 330.393 348.948 C 327.829 344.642 334.95 335.676 346.299 328.921 C 346.738 328.659 347.176 328.408 347.614 328.162 C 348.829 336.758 353.412 341.023 357.805 343.131 Z"/>
  <path style="fill: rgb(185, 216, 244);" d="M 328.907 274.085 C 328.907 274.085 324.231 280.533 332.22 293.956 L 353.307 329.383 C 353.307 329.383 356.513 334.21 351.295 337.314 C 346.078 340.42 343.364 335.303 343.364 335.303 L 322.276 299.874 C 314.286 286.452 306.39 287.487 306.39 287.487 L 328.907 274.085 Z"/>
  <path style="fill: rgb(150, 200, 239);" d="M 331.452 292.611 C 329.955 293.783 328.351 294.878 326.643 295.895 C 324.933 296.913 323.205 297.801 321.462 298.559 C 313.76 286.524 306.39 287.487 306.39 287.487 L 328.907 274.085 C 328.907 274.085 324.546 280.102 331.452 292.611 Z"/>
  <path style="fill: rgb(209, 231, 248);" d="M 252.186 192.99 L 271.686 181.383 C 275.621 179.042 280.642 179.695 283.846 182.964 C 302 201.481 356.258 261.562 319.299 283.56 C 282.341 305.559 255.399 229.218 247.778 204.433 C 246.432 200.057 248.253 195.332 252.186 192.99 Z"/>
  <path style="fill: rgb(185, 216, 244);" d="M 268.24 191.74 C 267.19 188.324 268.076 184.699 270.385 182.157 L 252.186 192.99 C 248.252 195.331 246.432 200.055 247.778 204.431 C 255.399 229.216 282.341 305.557 319.299 283.559 C 323.496 281.06 326.513 278.071 328.544 274.706 C 297.398 277.51 275.067 213.942 268.24 191.74 Z"/>
  <path style="fill: rgb(255, 235, 153);" d="M 319.299 283.559 C 293.245 299.068 272.168 265.702 259.329 235.982 L 305.441 207.362 C 325.665 232.893 345.626 267.889 319.299 283.559 Z"/>
  <path style="fill: rgb(255, 228, 119);" d="M 279.79 223.284 L 259.33 235.983 C 272.168 265.704 293.245 299.068 319.3 283.559 C 323.496 281.062 326.513 278.072 328.543 274.708 C 307.654 276.586 290.73 248.612 279.79 223.284 Z"/>
  <path style="fill: rgb(255, 245, 204);" d="M 282.15 207.253 C 269.577 229.254 259.33 235.983 259.33 235.983 C 275.331 243.022 293.214 233.829 300.552 229.46 C 307.891 225.092 310.299 215.602 305.931 208.263 C 299.195 196.946 286.388 199.838 282.15 207.253 Z"/>
  <path style="fill: rgb(255, 235, 153);" d="M 259.33 235.983 C 268.311 239.934 277.882 238.77 285.851 236.218 C 282.411 229.477 279.371 222.535 276.771 216.003 C 266.781 231.082 259.33 235.983 259.33 235.983 Z"/>
  <g transform="matrix(0.472706, 0, 0, 0.472706, 129.981888, 128.229279)">
    <circle style="fill:#FFFFFF;" cx="362.187" cy="244.434" r="7.726"/>
    <circle style="fill:#FFFFFF;" cx="346.837" cy="298.21" r="7.726"/>
    <circle style="fill:#FFFFFF;" cx="399.696" cy="276.73" r="7.726"/>
  </g>
  <ellipse transform="matrix(0.511493, -0.859289, 0.859287, 0.511494, -38.881605, 248.181362)" style="fill: rgb(150, 200, 239);" cx="21.068" cy="208.494" rx="9.076" ry="23.911"/>
  <path style="fill: rgb(120, 185, 235);" d="M 157.92 330.308 C 157.198 329.836 156.457 329.373 155.697 328.921 C 144.349 322.166 133.071 320.18 130.507 324.489 C 127.943 328.796 135.066 337.762 146.414 344.516 C 146.852 344.778 147.29 345.029 147.73 345.277 C 148.943 336.68 153.526 332.416 157.92 330.308 Z"/>
  <path style="fill: rgb(185, 216, 244);" d="M 173.09 274.085 C 173.09 274.085 177.766 280.533 169.776 293.956 L 148.689 329.383 C 148.689 329.383 145.484 334.21 150.702 337.314 C 155.918 340.42 158.633 335.303 158.633 335.303 L 179.721 299.874 C 187.711 286.452 195.607 287.487 195.607 287.487 L 173.09 274.085 Z"/>
  <path style="fill: rgb(150, 200, 239);" d="M 170.545 292.611 C 172.041 293.783 173.645 294.878 175.354 295.895 C 177.064 296.913 178.792 297.801 180.534 298.559 C 188.237 286.524 195.606 287.487 195.606 287.487 L 173.09 274.085 C 173.09 274.085 177.45 280.102 170.545 292.611 Z"/>
  <path style="fill: rgb(209, 231, 248);" d="M 249.81 192.99 L 230.31 181.383 C 226.376 179.042 221.355 179.695 218.151 182.964 C 199.997 201.48 145.739 261.562 182.697 283.56 C 219.656 305.559 246.598 229.218 254.219 204.433 C 255.564 200.057 253.744 195.332 249.81 192.99 Z"/>
  <path style="fill: rgb(185, 216, 244);" d="M 237.272 194.345 C 240.477 191.076 245.498 190.423 249.431 192.765 L 230.31 181.383 C 226.377 179.042 221.356 179.695 218.151 182.964 C 199.998 201.48 145.739 261.562 182.697 283.56 C 186.364 285.741 189.931 286.954 193.392 287.347 C 175.273 261.43 220.919 211.024 237.272 194.345 Z"/>
  <path style="fill: rgb(255, 235, 153);" d="M 182.697 283.559 C 208.752 299.068 229.828 265.702 242.667 235.982 L 196.555 207.362 C 176.331 232.893 156.37 267.889 182.697 283.559 Z"/>
  <path style="fill: rgb(255, 228, 119);" d="M 215.418 219.07 L 196.554 207.363 C 176.331 232.892 156.369 267.889 182.697 283.559 C 186.364 285.741 189.932 286.956 193.393 287.348 C 181.117 269.796 198.098 241.007 215.418 219.07 Z"/>
  <path style="fill: rgb(255, 245, 204);" d="M 219.847 207.253 C 232.419 229.254 242.667 235.983 242.667 235.983 C 226.665 243.022 208.783 233.829 201.444 229.46 C 194.105 225.092 191.697 215.602 196.066 208.263 C 202.801 196.946 215.609 199.838 219.847 207.253 Z"/>
  <path style="fill: rgb(255, 235, 153);" d="M 219.847 207.253 C 215.609 199.838 202.802 196.946 196.066 208.263 C 191.697 215.602 194.106 225.092 201.444 229.46 C 202.668 230.189 204.192 231.053 205.946 231.952 C 211.047 224.432 216.714 217.256 222.049 210.993 C 221.324 209.796 220.59 208.553 219.847 207.253 Z"/>
  <g transform="matrix(0.472706, 0, 0, 0.472706, 129.981888, 128.229279)">
    <circle style="fill:#FFFFFF;" cx="164.98" cy="290.617" r="7.726"/>
    <circle style="fill:#FFFFFF;" cx="164.98" cy="252.161" r="7.726"/>
  </g>
  <path style="fill: rgb(255, 235, 153);" d="M 256.899 153.153 C 256.899 156.412 254.257 170.588 250.998 170.588 C 247.738 170.588 245.097 156.412 245.097 153.153 C 245.097 149.894 247.738 147.252 250.998 147.252 C 254.257 147.252 256.899 149.894 256.899 153.153 Z"/>
  <path style="fill: rgb(255, 222, 85);" d="M 250.998 153.153 C 250.998 150.97 252.186 149.069 253.948 148.048 C 253.08 147.544 252.075 147.252 250.998 147.252 C 247.738 147.252 245.097 149.894 245.097 153.154 C 245.097 156.412 247.738 170.589 250.998 170.589 C 252.073 170.589 253.08 169.042 253.948 166.857 C 252.186 162.418 250.998 155.336 250.998 153.153 Z"/>
  <path style="fill: rgb(255, 235, 153);" d="M 234.126 160.521 C 236.5 162.753 241.013 170.621 238.781 172.996 C 236.55 175.37 228.418 171.353 226.042 169.12 C 223.668 166.888 223.553 163.154 225.785 160.779 C 228.017 158.404 231.751 158.289 234.126 160.521 Z"/>
  <path style="fill: rgb(255, 222, 85);" d="M 230.194 164.761 C 228.612 163.274 228.038 161.12 228.488 159.146 C 227.488 159.425 226.548 159.967 225.785 160.778 C 223.552 163.153 223.668 166.888 226.042 169.12 C 228.416 171.352 236.548 175.37 238.781 172.996 C 239.53 172.199 239.518 170.781 239.083 169.165 C 235.848 168.492 231.763 166.238 230.194 164.761 Z"/>
  <path style="fill: rgb(255, 235, 153);" d="M 267.87 160.521 C 265.496 162.753 260.983 170.621 263.215 172.996 C 265.448 175.37 273.58 171.353 275.954 169.12 C 278.328 166.888 278.444 163.154 276.212 160.779 C 273.979 158.404 270.245 158.289 267.87 160.521 Z"/>
  <path style="fill: rgb(255, 222, 85);" d="M 271.814 164.788 C 273.43 163.268 275.676 162.839 277.651 163.467 C 277.422 162.492 276.947 161.561 276.212 160.778 C 273.979 158.404 270.245 158.289 267.87 160.521 C 265.496 162.753 260.983 170.621 263.215 172.996 C 263.935 173.761 265.267 173.861 266.822 173.572 C 267.645 170.355 270.214 166.291 271.814 164.788 Z"/>
  <g/>
  <g/>
  <g/>
  <g/>
  <g/>
  <g/>
  <g/>
  <g/>
  <g/>
  <g/>
  <g/>
  <g/>
  <g/>
  <g/>
  <g/>
</svg>