<?xml version="1.0" encoding="utf-8"?>
<svg viewBox="0 0 150 150" xmlns="http://www.w3.org/2000/svg" xmlns:bx="https://boxy-svg.com">
  <defs>
    <bx:grid x="0" y="0" width="74.994" height="74.994"/>
  </defs>
  <g transform="matrix(0.804931, 0, 0, 0.804931, -163.717209, -88.220581)">
    <ellipse transform="matrix(0.591371, 0.8064, -0.802513, 0.596672, 296.803711, 87.520478)" cx="94.433" cy="73.55" rx="32.647" ry="31.705" style="fill: rgb(234, 229, 224);">
      <title>Ombre</title>
    </ellipse>
    <ellipse transform="matrix(0.996122, 0.087976, -0.081431, 0.996701, 207.052315, 122.573162)" cx="94.805" cy="73.841" rx="32.495" ry="30.484" style="fill: rgb(198, 195, 192);"/>
    <ellipse transform="matrix(0.996122, 0.087976, -0.081427, 0.996701, 207.052203, 121.573169)" cx="94.805" cy="73.841" rx="32.495" ry="30.484" style="fill: rgb(253, 255, 255);"/>
    <ellipse transform="matrix(0.996124, 0.087975, -0.081426, 0.996701, 231.051266, 143.382624)" cx="69.043" cy="53.775" rx="23.665" ry="22.02" style="fill: rgb(249, 246, 244);">
      <title>Centre</title>
    </ellipse>
  </g>
  <g transform="matrix(0.183511, 0, 0, 0.183511, 1.841784, 25.610832)">
    <title>Fork</title>
    <path d="M 223.425 377.996 C 206.803 377.973 216.167 331.731 216.475 328.618 C 223.211 260.546 220.815 250.045 220.105 247.206 C 215.977 230.685 209.303 234.87 210.302 212.071 C 210.993 196.316 212.485 165.168 214.332 164.933 C 216.609 164.644 213.375 215.323 216.385 215.281 C 219.325 215.24 218.058 164.405 220.11 164.401 C 221.801 164.398 221.159 215.042 224.02 215.325 C 226.451 215.566 225.007 164.934 227.333 164.781 C 229.998 164.605 229.123 215.157 231.555 215.265 C 234.294 215.387 230.74 164.673 233.119 165.009 C 235.546 165.352 237.108 203.715 237.445 212.908 C 238.108 230.99 230.097 235.215 227.695 246.684 C 226.978 250.108 223.518 259.185 230.602 328.016 C 231.128 333.127 240.256 378.019 223.425 377.996 Z" style="fill: rgb(177, 177, 177);"/>
    <path d="M 223.425 377.996 C 206.803 377.973 216.167 331.731 216.475 328.618 C 223.211 260.546 220.815 250.045 220.105 247.206 C 215.977 230.685 209.303 234.87 210.302 212.071 C 210.993 196.316 212.481 165.136 214.332 164.933 C 215.716 164.781 205.942 218.114 220.991 247.096 C 222.593 248.698 218.603 341.165 225.533 365.465 C 225.533 365.465 229.324 378.004 223.425 377.996 Z" style="fill: rgb(138, 138, 138);"/>
  </g>
  <g transform="matrix(0.183511, 0, 0, 0.183511, -6.065076, 25.610929)">
    <title>Fork</title>
    <path d="M 223.425 377.996 C 206.803 377.973 216.167 331.731 216.475 328.618 C 223.211 260.546 220.815 250.045 220.105 247.206 C 215.977 230.685 209.303 234.87 210.302 212.071 C 210.993 196.316 212.485 165.168 214.332 164.933 C 216.609 164.644 213.375 215.323 216.385 215.281 C 219.325 215.24 218.058 164.405 220.11 164.401 C 221.801 164.398 221.159 215.042 224.02 215.325 C 226.451 215.566 225.007 164.934 227.333 164.781 C 229.998 164.605 229.123 215.157 231.555 215.265 C 234.294 215.387 230.74 164.673 233.119 165.009 C 235.546 165.352 237.108 203.715 237.445 212.908 C 238.108 230.99 230.097 235.215 227.695 246.684 C 226.978 250.108 223.518 259.185 230.602 328.016 C 231.128 333.127 240.256 378.019 223.425 377.996 Z" style="fill: rgb(177, 177, 177);"/>
    <path d="M 223.425 377.996 C 206.803 377.973 216.167 331.731 216.475 328.618 C 223.211 260.546 220.815 250.045 220.105 247.206 C 215.977 230.685 209.303 234.87 210.302 212.071 C 210.993 196.316 212.481 165.136 214.332 164.933 C 215.716 164.781 205.942 218.114 220.991 247.096 C 222.593 248.698 218.603 341.165 225.533 365.465 C 225.533 365.465 229.324 378.004 223.425 377.996 Z" style="fill: rgb(138, 138, 138);"/>
  </g>
  <g transform="matrix(0.183587, 0, 0, 0.183587, 60.190212, 24.932371)">
    <title>Spoon</title>
    <path d="M 239.515 381.351 C 217.425 381.559 242.439 292.639 237.451 249.236 C 237.351 248.366 237.159 247.492 237.104 246.591 C 236.799 241.575 224.893 243.057 219.704 222.317 C 214.97 203.396 222.358 170.124 239.492 169.115 C 257.986 168.026 263.963 203.261 259.477 223.806 C 256.489 237.487 251.016 236.62 243.332 246.182 C 242.558 247.145 242.968 248.576 242.842 249.701 C 237.25 299.804 263.008 381.13 239.515 381.351 Z" style="fill: rgb(177, 177, 177);"/>
    <path d="M 239.515 381.351 C 217.425 381.559 242.439 292.639 237.451 249.236 C 237.351 248.366 237.159 247.492 237.104 246.591 C 236.799 241.575 224.893 243.057 219.704 222.317 C 214.97 203.396 222.332 169.478 239.492 169.115 C 205.95 215.701 240.458 246.367 240.238 245.563 C 239.911 244.372 239.866 247.956 239.748 249.082 C 234.495 299.185 249.507 381.351 239.515 381.351 Z" style="fill: rgb(138, 138, 138);"/>
  </g>
  <g transform="matrix(0.167592, 0, 0, 0.167592, 75.62635, 28.578424)">
    <title>Knife</title>
    <path d="M 219.92 395.796 C 197.055 395.319 222.033 314.159 215.333 276.116 C 214.671 272.357 209.91 266.525 209.91 266.525 C 203.51 259.651 209.107 162.307 226.381 162.312 C 227.91 162.312 226.497 274.188 225.758 276.533 C 218.909 298.258 240.174 396.219 219.92 395.796 Z" style="fill: rgb(177, 177, 177);"/>
    <path d="M 219.92 395.796 C 197.05 395.794 222.033 314.159 215.333 276.116 C 214.671 272.357 209.91 266.525 209.91 266.525 C 203.51 259.651 209.107 162.307 226.381 162.312 C 227.91 162.312 216.287 189.952 214.492 204.428 C 206.638 267.758 233.898 395.797 219.92 395.796 Z" style="fill: rgb(138, 138, 138);"/>
  </g>
  <path style="fill: none; stroke: rgb(95, 55, 14);" d="M 77.762 62.901 C 83.175 71.544 83.264 88.46 75.128 94.982"/>
  <g transform="matrix(0.804931, 0, 0, 0.804931, -163.717209, -88.220581)">
    <path d="M 299.951 187.744 C 296.77 187.664 289.468 173.842 291.471 173.354 C 292.238 172.331 300.718 186.721 299.951 187.744 Z" style="fill: rgb(116, 126, 61);"/>
    <path d="M 299.951 187.744 C 296.77 187.664 289.468 173.842 291.471 173.354 C 291.994 178.822 300.61 188.809 299.951 187.744 Z" style="fill: rgb(91, 99, 43);"/>
  </g>
  <g transform="matrix(0.804931, 0, 0, 0.804931, -163.717209, -88.220581)">
    <path d="M 299.629 187.866 C 300.804 188.101 304.048 179.889 302.38 179.495 C 301.765 179.249 298.666 187.481 299.629 187.866 Z" style="fill: rgb(116, 126, 61);"/>
    <path d="M 299.629 187.866 C 299.299 187.976 302.734 179.779 302.38 179.495 C 301.765 179.249 298.666 187.481 299.629 187.866 Z" style="fill: rgb(91, 99, 43);"/>
  </g>
  <g transform="matrix(0.804931, 0, 0, 0.804931, -163.717209, -88.220581)">
    <path d="M 295.732 193.945 C 296.907 194.18 300.151 185.968 298.483 185.574 C 297.868 185.328 294.769 193.56 295.732 193.945 Z" transform="matrix(-0.045087, 0.998983, -0.998983, -0.045087, 500.217469, -98.631844)" style="fill: rgb(116, 126, 61);"/>
  </g>
  <g transform="matrix(0.804931, 0, 0, 0.804931, -163.717209, -88.220581)">
    <g>
      <path d="M 304.054 196.954 C 304.757 197.189 307.389 187.782 306.206 187.388 C 305.212 187.388 303.136 196.954 304.054 196.954 Z" style="fill: rgb(116, 126, 61);"/>
      <path d="M 304.054 196.954 C 304.757 197.189 307.389 187.782 306.206 187.388 C 306.361 189.878 303.505 197.754 304.054 196.954 Z" style="fill: rgb(91, 99, 43);"/>
    </g>
  </g>
  <g transform="matrix(0.804931, 0, 0, 0.804931, -163.717209, -88.220581)">
    <path d="M 305.01 204.487 C 306.967 204.83 311.165 195.563 309.913 194.562 C 309.913 194.562 305.394 199.107 305.01 204.487 Z" style="fill: rgb(116, 126, 61);"/>
    <path d="M 305.01 204.487 C 306.967 204.83 311.165 195.563 309.913 194.562 C 310.315 195.367 307.209 202.737 305.01 204.487 Z" style="fill: rgb(91, 99, 43);"/>
  </g>
  <g transform="matrix(0.804931, 0, 0, 0.804931, -163.717209, -88.220581)">
    <path d="M 305.01 211.901 C 305.967 214.133 313.142 207.317 312.185 205.085 C 311.764 204.69 310.142 204.496 305.01 211.901 Z" style="fill: rgb(116, 126, 61);"/>
  </g>
  <g transform="matrix(0.804931, 0, 0, 0.804931, -163.717209, -88.220581)">
    <path d="M 304.173 209.51 C 304.173 206.749 291.259 205.836 291.259 207.477 C 291.169 208.735 303.956 212.552 304.173 209.51 Z" style="fill: rgb(116, 126, 61);"/>
  </g>
  <g transform="matrix(0.804931, 0, 0, 0.804931, -163.717209, -88.220581)">
    <path d="M 301.227 222.305 C 300.641 220.077 288.284 217.242 289.27 220.989 C 293.986 224.801 295.487 221.677 301.227 222.305 Z" style="fill: rgb(116, 126, 61);"/>
  </g>
  <g transform="matrix(0.804931, 0, 0, 0.804931, -163.717209, -88.220581)">
    <path d="M 303.934 203.531 C 303.64 204.853 296.385 197.183 296.728 195.639 C 296.728 194.045 303.934 201.937 303.934 203.531 Z" style="fill: rgb(116, 126, 61);"/>
  </g>
  <g transform="matrix(0.804931, 0, 0, 0.804931, -163.717209, -88.220581)">
    <path style="fill: rgb(216, 216, 216); stroke: rgb(0, 0, 0);" d="M 315.294 197.313"/>
  </g>
  <g transform="matrix(0.804931, 0, 0, 0.804931, -163.717209, -88.220581)">
    <path d="M 295.732 193.945 C 296.907 194.18 300.151 185.968 298.483 185.574 C 299.56 185.047 296.403 193.289 295.732 193.945 Z" transform="matrix(-0.045087, 0.998983, -0.998983, -0.045087, 500.217469, -98.631844)" style="fill: rgb(91, 99, 43);"/>
  </g>
  <g transform="matrix(0.804931, 0, 0, 0.804931, -163.717209, -88.220581)">
    <path d="M 303.934 203.531 C 303.64 204.853 296.385 197.183 296.728 195.639 C 296.495 194.877 303.275 204.291 303.934 203.531 Z" style="fill: rgb(91, 99, 43);"/>
  </g>
  <g transform="matrix(0.804931, 0, 0, 0.804931, -163.717209, -88.220581)">
    <path d="M 304.173 209.51 C 304.173 211.411 291.259 208.084 291.259 207.477 C 291.169 208.735 303.956 212.552 304.173 209.51 Z" style="fill: rgb(91, 99, 43);"/>
  </g>
  <g transform="matrix(0.804931, 0, 0, 0.804931, -163.717209, -88.220581)">
    <path d="M 305.01 211.901 C 305.967 214.133 313.142 207.317 312.185 205.085 C 311.772 204.715 311.661 209.305 305.01 211.901 Z" style="fill: rgb(91, 99, 43);"/>
  </g>
  <g transform="matrix(0.804931, 0, 0, 0.804931, -163.717209, -88.220581)">
    <path d="M 301.227 222.305 C 300.641 220.077 288.284 217.242 289.27 220.989 C 294.957 218.756 295.588 221.047 301.227 222.305 Z" style="fill: rgb(91, 99, 43);"/>
  </g>
</svg>