<?xml version="1.0" encoding="utf-8"?>
<svg version="1.1" id="Capa_1" x="0px" y="0px" viewBox="0 0 90 90" style="enable-background:new 0 0 59 59;" preserveAspectRatio="xMidYMid slice" xmlns="http://www.w3.org/2000/svg" xmlns:bx="https://boxy-svg.com">
  <defs>
    <bx:grid x="0" y="0" width="15.048" height="15.048"/>
  </defs>
  <polygon style="fill: rgb(56, 69, 79);" points="62.614 38.672 53.487 38.672 53.487 36.565 36.635 36.565 36.635 38.672 27.508 38.672 27.508 61.14 36.635 61.14 36.635 63.948 53.487 63.948 53.487 61.14 62.614 61.14"/>
  <circle style="fill: rgb(80, 80, 138); stroke: rgb(40, 50, 56); stroke-width: 4; stroke-linecap: round; stroke-miterlimit: 10;" cx="45.061" cy="50.608" r="11.234"/>
  <g transform="matrix(0.702141, 0, 0, 0.702141, 24.347834, 23.925896)">
    <path style="fill:#546A79;" d="M9.5,38c0-5.846,2.516-11.093,6.518-14.745C16.894,22.456,16.322,21,15.137,21L4.461,21&#10;&#9;&#9;C3.378,21,2.5,21.878,2.5,22.961v28.078C2.5,52.122,3.378,53,4.461,53h8.749c1.121,0,1.7-1.304,0.978-2.162&#10;&#9;&#9;C11.266,47.366,9.5,42.893,9.5,38z"/>
    <path style="fill:#546A79;" d="M43.863,21c-1.186,0-1.757,1.456-0.881,2.255C46.984,26.907,49.5,32.154,49.5,38&#10;&#9;&#9;c0,4.893-1.766,9.366-4.687,12.838C44.091,51.696,44.669,53,45.79,53h8.749c1.083,0,1.961-0.878,1.961-1.961V22.961&#10;&#9;&#9;c0-1.083-0.878-1.961-1.961-1.961H43.863z"/>
  </g>
  <circle style="fill: rgb(67, 76, 109); stroke: rgb(115, 131, 191); stroke-width: 2; stroke-linecap: round; stroke-miterlimit: 10;" cx="36.726" cy="41.114" r="5.617" transform="matrix(1, 0, 0, 1.000003, 8.334621, 9.493949)"/>
  <rect x="28.21" y="35.161" style="fill: rgb(40, 50, 56);" width="5.617" height="3.51"/>
  <path style="fill: rgb(175, 182, 187);" d="M 53.487 61.14 C 53.099 61.14 52.784 61.454 52.784 61.843 L 52.784 63.948 L 37.337 63.948 L 37.337 61.843 C 37.337 61.454 37.023 61.14 36.635 61.14 C 36.247 61.14 35.933 61.454 35.933 61.843 L 35.933 64.651 C 35.933 65.04 36.247 65.353 36.635 65.353 L 53.487 65.353 C 53.875 65.353 54.189 65.04 54.189 64.651 L 54.189 61.843 C 54.189 61.454 53.875 61.14 53.487 61.14 Z"/>
  <circle style="fill: rgb(56, 69, 79);" cx="36.726" cy="19.348" r="4.915" transform="matrix(1.000001, 0, 0, 1.000002, 8.334593, 9.493991)"/>
  <path style="fill: rgb(84, 106, 121);" d="M 45.061 33.757 C 44.573 33.757 44.102 33.683 43.657 33.55 L 43.657 36.565 L 46.465 36.565 L 46.465 33.55 C 46.02 33.683 45.549 33.757 45.061 33.757 Z"/>
  <circle style="fill: rgb(84, 106, 121);" cx="31.127" cy="14.795" r="2.107" transform="matrix(0.999999, 0, 0, 1.000001, 13.933635, 14.045629)"/>
  <path style="fill: rgb(175, 182, 187);" d="M 53.487 35.161 L 36.635 35.161 C 36.247 35.161 35.933 35.475 35.933 35.863 L 35.933 37.969 C 35.933 38.358 36.247 38.672 36.635 38.672 C 37.023 38.672 37.337 38.358 37.337 37.969 L 37.337 36.565 L 52.784 36.565 L 52.784 37.969 C 52.784 38.358 53.099 38.672 53.487 38.672 C 53.875 38.672 54.189 38.358 54.189 37.969 L 54.189 35.863 C 54.189 35.475 53.875 35.161 53.487 35.161 Z"/>
  <rect x="56.997" y="36.565" style="fill: rgb(40, 50, 56);" width="4.915" height="2.107"/>
  <circle style="fill: rgb(113, 195, 169);" cx="31.127" cy="35.158" r="2.107" transform="matrix(0.999999, 0, 0, 1.000002, 13.933635, 14.045659)"/>
  <circle style="fill: rgb(215, 94, 114);" cx="31.127" cy="42.881" r="1.405" transform="matrix(1, 0, 0, 0.999997, 13.933311, 14.045488)"/>
  <g/>
  <g/>
  <g/>
  <g/>
  <g/>
  <g/>
  <g/>
  <g/>
  <g/>
  <g/>
  <g/>
  <g/>
  <g/>
  <g/>
  <g/>
</svg>